<svg id="visual" viewBox="0 0 900 600" width="900" height="600" xmlns="http://www.w3.org/2000/svg" xmlns:xlink="http://www.w3.org/1999/xlink" version="1.1"><rect x="0" y="0" width="900" height="600" fill="#282c34"></rect><path d="M0 410L21.5 407.5C43 405 86 400 128.8 395.5C171.7 391 214.3 387 257.2 394.8C300 402.7 343 422.3 385.8 424C428.7 425.7 471.3 409.3 514.2 405.3C557 401.3 600 409.7 642.8 411.2C685.7 412.7 728.3 407.3 771.2 411.2C814 415 857 428 878.5 434.5L900 441L900 601L878.5 601C857 601 814 601 771.2 601C728.3 601 685.7 601 642.8 601C600 601 557 601 514.2 601C471.3 601 428.7 601 385.8 601C343 601 300 601 257.2 601C214.3 601 171.7 601 128.8 601C86 601 43 601 21.5 601L0 601Z" fill="#477099"></path><path d="M0 416L21.5 419.7C43 423.3 86 430.7 128.8 427.7C171.7 424.7 214.3 411.3 257.2 406.5C300 401.7 343 405.3 385.8 405.8C428.7 406.3 471.3 403.7 514.2 412.7C557 421.7 600 442.3 642.8 442.3C685.7 442.3 728.3 421.7 771.2 415.7C814 409.7 857 418.3 878.5 422.7L900 427L900 601L878.5 601C857 601 814 601 771.2 601C728.3 601 685.7 601 642.8 601C600 601 557 601 514.2 601C471.3 601 428.7 601 385.8 601C343 601 300 601 257.2 601C214.3 601 171.7 601 128.8 601C86 601 43 601 21.5 601L0 601Z" fill="#7792b2"></path><path d="M0 482L21.5 481.7C43 481.3 86 480.7 128.8 479.8C171.7 479 214.3 478 257.2 473.7C300 469.3 343 461.7 385.8 460.5C428.7 459.3 471.3 464.7 514.2 472.7C557 480.7 600 491.3 642.8 489.3C685.7 487.3 728.3 472.7 771.2 469.2C814 465.7 857 473.3 878.5 477.2L900 481L900 601L878.5 601C857 601 814 601 771.2 601C728.3 601 685.7 601 642.8 601C600 601 557 601 514.2 601C471.3 601 428.7 601 385.8 601C343 601 300 601 257.2 601C214.3 601 171.7 601 128.8 601C86 601 43 601 21.5 601L0 601Z" fill="#a4b5cb"></path><path d="M0 523L21.5 519.3C43 515.7 86 508.3 128.8 509.7C171.7 511 214.3 521 257.2 523.7C300 526.3 343 521.7 385.8 520.8C428.7 520 471.3 523 514.2 524.8C557 526.7 600 527.3 642.8 519.8C685.7 512.3 728.3 496.7 771.2 495.5C814 494.3 857 507.7 878.5 514.3L900 521L900 601L878.5 601C857 601 814 601 771.2 601C728.3 601 685.7 601 642.8 601C600 601 557 601 514.2 601C471.3 601 428.7 601 385.8 601C343 601 300 601 257.2 601C214.3 601 171.7 601 128.8 601C86 601 43 601 21.5 601L0 601Z" fill="#d1d9e5"></path><path d="M0 552L21.5 548.2C43 544.3 86 536.7 128.8 535C171.7 533.3 214.3 537.7 257.2 539.2C300 540.7 343 539.3 385.8 541.3C428.7 543.3 471.3 548.7 514.2 548.3C557 548 600 542 642.8 544.3C685.7 546.7 728.3 557.3 771.2 557.7C814 558 857 548 878.5 543L900 538L900 601L878.5 601C857 601 814 601 771.2 601C728.3 601 685.7 601 642.8 601C600 601 557 601 514.2 601C471.3 601 428.7 601 385.8 601C343 601 300 601 257.2 601C214.3 601 171.7 601 128.8 601C86 601 43 601 21.5 601L0 601Z" fill="#ffffff"></path></svg>